<?xml version="1.0" encoding="UTF-8"?><svg id="Layer_1" xmlns="http://www.w3.org/2000/svg" viewBox="0 0 500 500"><path d="M478.66,397H54c-9.03,0-16.34-7.31-16.34-16.33s7.31-16.34,16.34-16.34h331.09c21.78.2,41.19-13.72,48-34.41l59.9-164.3c4.37-14.56,1.54-30.34-7.63-42.46-9.58-12.82-24.69-20.3-40.69-20.16H100.5l-14.07-84.36c-1.31-7.87-8.12-13.64-16.1-13.64H21.33c-9.02,0-16.33,7.32-16.33,16.34s7.31,16.32,16.33,16.33h35.16l11.58,69.46c-7.15,2.95-13.53,7.53-18.62,13.36-9.26,10.73-13.35,24.98-11.18,38.99l29.02,162.89c.49,3.18,1.31,6.29,2.43,9.3h-15.72c-27.07,0-49,21.93-49,49s21.93,49,49,49h19.33c-1.93,5.23-2.95,10.75-3,16.33,0,27.06,21.96,48.99,49.02,48.98,27.05-.01,48.97-21.93,48.98-48.98-.05-5.58-1.07-11.1-3.01-16.33h169.35c-1.94,5.23-2.95,10.75-3.01,16.33,0,27.06,21.94,49,49,49s49-21.94,49-49c-.05-5.58-1.07-11.1-3-16.33h52c9.02,0,16.34-7.32,16.34-16.34s-7.32-16.33-16.34-16.33ZM74.2,141.82c3.48-3.96,8.51-6.2,13.79-6.15h356.68c5.69-.1,11.09,2.53,14.52,7.07,2.85,3.55,3.88,8.22,2.81,12.64l-59.89,164.3c-2.43,7.3-9.33,12.16-17.02,11.99H117.09c-8.66.18-16.15-6.04-17.56-14.59l-29.02-162.86c-.67-4.47.69-9.01,3.69-12.4ZM119.33,462.33c-9.02,0-16.33-7.31-16.33-16.33s7.31-16.33,16.33-16.33,16.33,7.31,16.33,16.33-7.31,16.33-16.33,16.33ZM380.66,462.33c-9.02,0-16.33-7.31-16.33-16.33s7.31-16.33,16.33-16.33,16.34,7.31,16.34,16.33-7.32,16.33-16.34,16.33Z"/><path d="M266.33,184.67v98c0,9.02-7.31,16.33-16.33,16.33s-16.34-7.31-16.34-16.33v-98c0-9.02,7.31-16.34,16.34-16.34s16.33,7.32,16.33,16.34Z"/><path d="M348,184.67v98c0,9.02-7.32,16.33-16.34,16.33s-16.33-7.31-16.33-16.33v-98c0-9.02,7.31-16.34,16.33-16.34s16.34,7.32,16.34,16.34Z"/><path d="M184.66,184.67v98c0,9.02-7.31,16.33-16.33,16.33s-16.33-7.31-16.33-16.33v-98c0-9.02,7.31-16.34,16.33-16.34s16.33,7.32,16.33,16.34Z"/></svg>