<?xml version="1.0" encoding="UTF-8"?><svg id="Layer_1" xmlns="http://www.w3.org/2000/svg" viewBox="0 0 500 500"><path d="M427.38,177.35c-.02-10.91-5.99-20.9-14.63-27.24C406.23,69.53,341.42,5.57,260.87.14c-1.4-.09-2.8-.36-3.99-.36h-14.15c-1.25.26-2.52.24-3.99.35-23.91,1.62-47.12,8.45-68.12,20.12-47.68,26.53-79.42,75.18-83.74,129.85-9.21,6.64-14.8,17.24-14.8,28.73v50.61c0,19.89,15.88,35.38,35.4,35.79,20.05.42,36.78-14.97,37.08-35.34l-.03-51.28c0-10.9-5.18-20.97-13.61-27.64,4.55-44.98,34.69-83.74,76.89-99.62,27.44-10.33,57.94-10.16,85.25.5,41.55,16.2,71.16,54.65,75.6,99.13-7.82,6.34-13.41,15.71-13.44,26.06l-.15,54.29.25,3c-13.5,7.68-28.93,12.05-44.29,13.91-4.56-3.89-10.13-6.38-16.19-6.37l-21.95.03c-13.92.03-24.61,12.2-24.38,25.76.22,13.86,11.43,25.06,25.49,25.1h20.16c7.4,0,14.17-3.18,19.04-8.68,22.75-2.45,45.45-8.93,64.71-21.31,4.64,1.89,9.33,2.41,14.12,2.4,19.08-.07,34.62-15.1,35.47-34.14l-.12-53.66ZM293.92,272.14l-19.96-.02c-2.7,0-4.73-2.2-4.82-4.7-.09-2.48,1.88-4.98,4.6-4.98h20.82c2.56,0,3.75,2.75,5.48,4.46-1.85,2.33-2.45,5.23-6.12,5.23ZM391.23,244.56c-8.35-.27-7.69-3.39-13.05-4l-.56-.07c-.14-.02-.17-.33-.15-.57.25-4.43-1.77-6.03-1.76-9.48l.07-52.53c0-5.2,3.53-9.86,7.91-12.12,4.1-2.12,6.3-5.84,6.03-10.45-1.11-19.47-6.22-38.53-15.24-56.04-12.99-25.21-33.26-45.86-58.08-59.33-21.11-11.46-44.74-17.17-68.7-16.84-36.47.5-71.23,15.33-96.94,41.04-24.23,24.23-38.87,56.53-40.87,90.83-.27,4.66,1.7,8.62,6.01,10.78,4.83,2.42,8.03,7.49,8.03,13.05v50.68c0,8.88-7.36,15.27-16,15.1-8.31-.18-15.24-6.51-15.24-15.09l-.02-50.46c0-5.99,3.4-11.1,8.66-13.64,3.55-1.7,5.62-5.09,5.8-9.03.9-19.27,5.69-38.1,14.14-55.46,15.54-31.88,42.44-57.03,75.31-70.28,33.55-13.52,71.29-13.73,105-.55,26.06,10.18,48.55,27.84,64.76,50.66,15.76,22.19,24.85,48.38,26.11,75.56.19,4.06,2.26,7.38,5.94,9.19,4.74,2.32,8.4,7.13,8.41,12.64l.03,51.61c0,8.53-7.3,15.04-15.62,14.78Z"/><path d="M449.5,412.78l-.21-5.78c-.66-18.96-3.26-40.48-9.52-58.44-7.07-20.26-19.17-36.65-38.84-46.06-17.22-8.23-36.46-10.1-55.31-11.65l-19.51-1.61c-7.36-.61-13.96,4.52-14.45,12.02-.14,2.27-.6,4.29-1.82,6.24-1.61,2.6-3.66,4.77-6.09,6.69-8.68,6.86-20.45,10.91-31.3,12.98-14.36,2.72-29,2.84-43.4.36-11-1.9-23.28-5.84-32.2-12.54-3.73-2.8-8.77-7.82-8.83-12.68-.08-7.92-6.69-13.71-14.56-13.07l-19.49,1.61c-12.91,1.07-25.6,2.27-38.14,5.48-19.56,5-35.5,14.97-46.45,32.2-8.72,13.74-13.25,29.6-15.91,45.6-1.75,10.55-2.55,21-3.13,31.64l-.36,6.45v17.52c.24,1.01.24,2.11.34,3.29.67,8.29,2.25,16.36,5.29,24.11,4.74,12.09,13.1,22.11,24.25,28.77,18.41,11,40.77,12.85,61.74,13.81l6.7.3h202.97l6.69-.3c20.69-.95,42.97-2.78,61.21-13.49,10.35-6.07,18.48-15.01,23.43-25.94,6.88-15.19,7.46-31.16,6.88-47.5ZM423.52,425.43c-.05,4.5-.46,8.73-1.26,13.09-3.15,17.22-12.72,25.96-29.24,30.54-6.47,1.8-12.85,2.85-19.61,3.49-9.59.91-19.25,1.39-28.98,1.39h-189.27c-9.03,0-17.99-.44-26.89-1.19-6.78-.57-13.22-1.53-19.78-3.17-9.27-2.32-18.54-6.42-24.33-14.26-5.71-7.73-7.8-18.4-8.03-27.89-.27-11.33.15-22.45,1.14-33.73.72-8.3,1.86-16.3,3.7-24.42,2.34-10.39,6.11-21.15,12.48-29.73,7.49-10.09,17.51-15.11,29.5-18.17,6.21-1.5,12.26-2.63,18.65-3.19l23.32-2.08c4.35,10.17,12.87,18.04,22.14,23.72,33.89,20.53,90.38,20.64,124.49.56,9.71-5.75,18.56-13.73,23.1-24.28l22.6,1.99c6.02.52,11.69,1.54,17.56,2.84,14.02,3.29,25.33,9,33.26,21.39,3.03,4.75,5.31,9.71,7.16,15.05,4.56,13.21,6.61,28.19,7.54,42.15.58,8.69.83,17.17.74,25.9Z"/><path d="M285.83,295.38c-5.76,3.96-12.26,7-19.15,9.09-11.56,3.51-23.64,3.31-35.11-.4-22.54-7.3-41.07-26.53-53.85-45.9-12.29-18.63-21.27-39.28-26.58-60.96-2.19-8.94-3.56-17.99-4.04-27.11-1.5-28.8,9.14-56.72,29.22-77.24,38.78-39.63,102.14-41.31,142.95-3.89,22.6,20.73,34.84,50.38,33.24,81.14-1.27,24.37-9.42,49.42-20.69,71.21-6.52,1.93-13.24,3.38-20.05,4.25-4.98-4.04-10.83-6.14-17.17-6.33l-21.05.03c-15.32.02-27.46,12.72-27.59,27.72s11.96,28.1,27.35,28.26l12.51.13Z"/></svg>