<?xml version="1.0" encoding="UTF-8"?><svg id="Layer_1" xmlns="http://www.w3.org/2000/svg" viewBox="0 0 468.89 416.68"><path d="M430.56,397.06H37.62c-12.89,0-23.37-10.48-23.37-23.37v-18.57c0-2.65,2.15-4.8,4.8-4.8h430.08c2.65,0,4.8,2.15,4.8,4.8v18.57c0,12.89-10.48,23.37-23.37,23.37ZM23.85,359.92v13.77c0,7.59,6.18,13.77,13.77,13.77h392.94c7.59,0,13.77-6.18,13.77-13.77v-13.77H23.85Z"/><path d="M318.5,382.06h-165.92c-2.65,0-4.8-2.15-4.8-4.8v-17.37c0-2.65,2.15-4.8,4.8-4.8s4.8,2.15,4.8,4.8v12.57h156.32v-12.57c0-2.65,2.15-4.8,4.8-4.8s4.8,2.15,4.8,4.8v17.37c0,2.65-2.15,4.8-4.8,4.8Z"/><path d="M431.16,359.92c-2.65,0-4.8-2.15-4.8-4.8V123.91c0-11.89-9.67-21.56-21.56-21.56h-65.63c-2.65,0-4.8-2.15-4.8-4.8s2.15-4.8,4.8-4.8h65.63c17.18,0,31.16,13.98,31.16,31.16v231.21c0,2.65-2.15,4.8-4.8,4.8ZM37.02,359.92c-2.65,0-4.8-2.15-4.8-4.8V123.91c0-17.18,13.98-31.16,31.16-31.16h65.63c2.65,0,4.8,2.15,4.8,4.8s-2.15,4.8-4.8,4.8H63.38c-11.89,0-21.56,9.67-21.56,21.56v231.21c0,2.65-2.15,4.8-4.8,4.8Z"/><path d="M400.01,328.77H68.17c-2.65,0-4.8-2.15-4.8-4.8v-195.27c0-2.65,2.15-4.8,4.8-4.8h60.84c2.65,0,4.8,2.15,4.8,4.8s-2.15,4.8-4.8,4.8h-56.04v185.67h322.25v-185.67h-56.04c-2.65,0-4.8-2.15-4.8-4.8s2.15-4.8,4.8-4.8h60.84c2.65,0,4.8,2.15,4.8,4.8v195.27c-.01,2.65-2.16,4.8-4.81,4.8Z"/><path d="M339.17,287.82h-210.17c-2.65,0-4.8-2.15-4.8-4.8V22.62c0-2.65,2.15-4.8,4.8-4.8h210.17c2.65,0,4.8,2.15,4.8,4.8v260.4c0,2.65-2.14,4.8-4.8,4.8ZM133.8,278.22h200.57V27.42h-200.57v250.8Z"/><path d="M203.12,264.83c-.69,0-1.38-.15-2.04-.46l-44.85-21.16c-1.68-.79-2.75-2.48-2.75-4.34v-51.67c0-1.64.84-3.17,2.23-4.05s3.13-.99,4.62-.29l44.85,21.16c2.4,1.13,3.42,3.99,2.29,6.39s-3.99,3.42-6.39,2.29l-38-17.93v41.04l42.1,19.87c2.4,1.13,3.42,3.99,2.29,6.39-.83,1.74-2.55,2.76-4.35,2.76Z"/><path d="M203.12,264.83c-.9,0-1.79-.25-2.57-.75-1.39-.88-2.23-2.41-2.23-4.05v-51.66c0-1.86,1.07-3.55,2.75-4.34l44.85-21.16c1.49-.7,3.23-.59,4.62.29s2.23,2.41,2.23,4.05v51.66c0,1.86-1.07,3.55-2.75,4.34l-44.85,21.16c-.65.3-1.35.46-2.05.46ZM207.92,211.41v41.04l35.25-16.63v-41.04l-35.25,16.63Z"/><path d="M247.97,192c-.67,0-1.36-.14-2.01-.44l-42.84-19.74-42.84,19.74c-2.41,1.11-5.26.06-6.37-2.35s-.06-5.26,2.35-6.37l44.85-20.66c1.28-.59,2.74-.59,4.02,0l44.85,20.66c2.41,1.11,3.46,3.96,2.35,6.37-.81,1.76-2.55,2.79-4.36,2.79Z"/><path d="M213.02,140.11h-19.81c-2.65,0-4.8-2.15-4.8-4.8v-9.35l-6.61,6.61c-.9.9-2.12,1.41-3.39,1.41s-2.49-.51-3.39-1.41l-14.01-14.01c-1.87-1.87-1.87-4.91,0-6.79l6.61-6.61h-9.35c-2.65,0-4.8-2.15-4.8-4.8v-19.81c0-2.65,2.15-4.8,4.8-4.8h9.35l-6.61-6.61c-.9-.9-1.41-2.12-1.41-3.39s.51-2.49,1.41-3.39l14.01-14.01c.9-.9,2.12-1.41,3.39-1.41h0c1.27,0,2.49.51,3.39,1.41l6.61,6.61v-9.35c0-2.65,2.15-4.8,4.8-4.8h19.81c2.65,0,4.8,2.15,4.8,4.8v9.35l6.61-6.61c.9-.9,2.12-1.41,3.39-1.41s2.49.51,3.39,1.41l14.01,14.01c1.87,1.87,1.87,4.91,0,6.79l-6.61,6.61h9.35c2.65,0,4.8,2.15,4.8,4.8v19.81c0,2.65-2.15,4.8-4.8,4.8h-9.35l6.61,6.61c1.87,1.87,1.87,4.91,0,6.79l-14.01,14.01c-1.87,1.88-4.91,1.88-6.79,0l-6.61-6.61v9.35c.01,2.64-2.14,4.79-4.79,4.79ZM198.02,130.51h10.21v-10.09c0-2.07,1.33-3.91,3.29-4.56,1.23-.41,2.45-.91,3.62-1.5,1.85-.93,4.09-.57,5.55.89l7.13,7.13,7.22-7.22-7.13-7.13c-1.47-1.46-1.82-3.7-.89-5.55.59-1.17,1.09-2.39,1.5-3.62.65-1.97,2.49-3.29,4.56-3.29h10.09v-10.21h-10.09c-2.07,0-3.91-1.33-4.56-3.3-.41-1.24-.91-2.46-1.5-3.62-.93-1.85-.57-4.09.89-5.55l7.13-7.13-7.21-7.22-7.13,7.13c-1.47,1.47-3.71,1.82-5.56.89-1.16-.59-2.38-1.09-3.62-1.5-1.97-.65-3.3-2.49-3.3-4.56v-10.08h-10.21v10.08c0,2.07-1.33,3.91-3.29,4.56-1.23.41-2.45.91-3.62,1.5-1.85.93-4.09.57-5.56-.89l-7.13-7.13-7.22,7.22,7.13,7.13c1.47,1.46,1.82,3.71.89,5.56-.59,1.17-1.09,2.39-1.5,3.62-.65,1.97-2.49,3.29-4.56,3.29h-10.09v10.21h10.09c2.07,0,3.91,1.33,4.56,3.29.41,1.23.91,2.45,1.5,3.62.93,1.85.57,4.09-.89,5.55l-7.13,7.13,7.22,7.22,7.13-7.13c1.46-1.47,3.71-1.83,5.56-.89,1.17.59,2.39,1.1,3.62,1.5,1.97.65,3.3,2.49,3.3,4.56v10.09Z"/><path d="M203.12,110.97c-11.31,0-20.5-9.2-20.5-20.5s9.2-20.5,20.5-20.5,20.5,9.2,20.5,20.5-9.19,20.5-20.5,20.5ZM203.12,79.56c-6.01,0-10.9,4.89-10.9,10.9s4.89,10.9,10.9,10.9,10.9-4.89,10.9-10.9-4.89-10.9-10.9-10.9Z"/><path d="M309.91,165.23h-42.9c-2.65,0-4.8-2.15-4.8-4.8s2.15-4.8,4.8-4.8h42.9c2.65,0,4.8,2.15,4.8,4.8s-2.15,4.8-4.8,4.8Z"/><path d="M309.91,188.19h-42.9c-2.65,0-4.8-2.15-4.8-4.8s2.15-4.8,4.8-4.8h42.9c2.65,0,4.8,2.15,4.8,4.8s-2.15,4.8-4.8,4.8Z"/><path d="M309.91,211.16h-42.9c-2.65,0-4.8-2.15-4.8-4.8s2.15-4.8,4.8-4.8h42.9c2.65,0,4.8,2.15,4.8,4.8s-2.15,4.8-4.8,4.8Z"/><path d="M309.91,234.12h-42.9c-2.65,0-4.8-2.15-4.8-4.8s2.15-4.8,4.8-4.8h42.9c2.65,0,4.8,2.15,4.8,4.8s-2.15,4.8-4.8,4.8Z"/><path d="M309.91,257.08h-42.9c-2.65,0-4.8-2.15-4.8-4.8s2.15-4.8,4.8-4.8h42.9c2.65,0,4.8,2.15,4.8,4.8s-2.15,4.8-4.8,4.8Z"/><path d="M309.91,50.42h-42.9c-2.65,0-4.8-2.15-4.8-4.8s2.15-4.8,4.8-4.8h42.9c2.65,0,4.8,2.15,4.8,4.8s-2.15,4.8-4.8,4.8Z"/><path d="M309.91,96.34h-42.9c-2.65,0-4.8-2.15-4.8-4.8s2.15-4.8,4.8-4.8h42.9c2.65,0,4.8,2.15,4.8,4.8s-2.15,4.8-4.8,4.8Z"/><path d="M309.91,119.3h-42.9c-2.65,0-4.8-2.15-4.8-4.8s2.15-4.8,4.8-4.8h42.9c2.65,0,4.8,2.15,4.8,4.8s-2.15,4.8-4.8,4.8Z"/><path d="M309.91,142.27h-42.9c-2.65,0-4.8-2.15-4.8-4.8s2.15-4.8,4.8-4.8h42.9c2.65,0,4.8,2.15,4.8,4.8s-2.15,4.8-4.8,4.8Z"/><path d="M309.91,73.38h-42.9c-2.65,0-4.8-2.15-4.8-4.8s2.15-4.8,4.8-4.8h42.9c2.65,0,4.8,2.15,4.8,4.8s-2.15,4.8-4.8,4.8Z"/></svg>