<?xml version="1.0" encoding="UTF-8"?><svg id="Layer_1" xmlns="http://www.w3.org/2000/svg" viewBox="0 0 1080 1080"><path d="M543.06,0h-6.13C313.15,0,121.15,136.06,39.14,329.97,11.8,394.6-3.32,465.67-3.32,540.26c0,298.37,241.88,540.25,540.25,540.25h6.13c223.78,0,415.78-136.06,497.79-329.96,27.34-64.64,42.46-135.7,42.46-210.29C1083.31,241.88,841.43,0,543.06,0ZM450.15,921.77c89-71.19,124.78-133.37,130.39-189.14,9.84-97.82-73.12-175.94-124.47-248.49-38.08-53.79-58.78-104.52-11.41-157.93,10.87-12.25,25.31-24.64,43.95-37.25-23.36,47.54-1.89,101.63,33.83,158.53,7.6,12.1,15.84,24.33,24.43,36.65,18.43,26.43,38.47,53.29,57.22,80.22,91.29,131.12,151.87,263.88-153.94,357.41ZM604.09,414.3c-12.07,10.96-25.43,22.02-40.07,33.19,15.68-20.16,29.04-39.17,40.07-57.03,28.57-46.23,41.57-84.74,39-115.53-6.76,33.82-22.91,50.61-39,70.09-12.95,15.68-25.87,33.11-33.82,62.56-68.02-39.79-44.4-75.75-7.86-118.62,30.94-36.28,71.13-77.52,72.82-130.22,81.08,77.9,70.7,163.08-31.14,255.56Z"/></svg>