<?xml version="1.0" encoding="UTF-8"?><svg id="svg783" xmlns="http://www.w3.org/2000/svg" viewBox="0 0 682.67 682.67"><g id="g791"><g id="path793"><path d="M380,81.12h-189.55c-5.52,0-10-4.48-10-10s4.48-10,10-10h189.55c5.52,0,10,4.48,10,10s-4.48,10-10,10Z"/></g></g><g id="g795"><g id="path797"><path d="M380,142.22h-189.55c-5.52,0-10-4.48-10-10s4.48-10,10-10h189.55c5.52,0,10,4.48,10,10s-4.48,10-10,10Z"/></g></g><g id="g799"><g id="path801"><path d="M208.6,532.32h-48.14c-5.52,0-10-4.48-10-10s4.48-10,10-10h48.14c5.52,0,10,4.48,10,10s-4.48,10-10,10Z"/></g></g><g id="g803"><g id="path805"><path d="M309.29,532.32h-48.14c-5.52,0-10-4.48-10-10s4.48-10,10-10h48.14c5.52,0,10,4.48,10,10s-4.48,10-10,10Z"/></g></g><g id="g807"><g id="path809"><path d="M409.98,532.32h-48.14c-5.52,0-10-4.48-10-10s4.48-10,10-10h48.14c5.52,0,10,4.48,10,10s-4.48,10-10,10Z"/></g></g><g id="g811"><g id="path813"><path d="M208.6,577.31h-48.14c-5.52,0-10-4.48-10-10s4.48-10,10-10h48.14c5.52,0,10,4.48,10,10s-4.48,10-10,10Z"/></g></g><g id="g815"><g id="path817"><path d="M309.29,577.31h-48.14c-5.52,0-10-4.48-10-10s4.48-10,10-10h48.14c5.52,0,10,4.48,10,10s-4.48,10-10,10Z"/></g></g><g id="g819"><g id="path821"><path d="M409.98,577.31h-48.14c-5.52,0-10-4.48-10-10s4.48-10,10-10h48.14c5.52,0,10,4.48,10,10s-4.48,10-10,10Z"/></g></g><g id="g823"><g id="path825"><path d="M208.6,622.31h-48.14c-5.52,0-10-4.48-10-10s4.48-10,10-10h48.14c5.52,0,10,4.48,10,10s-4.48,10-10,10Z"/></g></g><g id="g827"><g id="path829"><path d="M309.29,622.31h-48.14c-5.52,0-10-4.48-10-10s4.48-10,10-10h48.14c5.52,0,10,4.48,10,10s-4.48,10-10,10Z"/></g></g><g id="g831"><g id="path833"><path d="M409.98,622.31h-48.14c-5.52,0-10-4.48-10-10s4.48-10,10-10h48.14c5.52,0,10,4.48,10,10s-4.48,10-10,10Z"/></g></g><g id="g837"><g id="g843"><g id="path845"><path d="M417.45,210.99H153c-14.36,0-26.04-11.68-26.04-26.04V53.51C126.95,24,150.96,0,180.47,0h293.83c5.52,0,10,4.48,10,10s-4.48,10-10,10c-16.98,0-30.8,13.82-30.8,30.8v134.15c0,14.36-11.68,26.04-26.04,26.04ZM180.47,20c-18.48,0-33.51,15.03-33.51,33.51v131.44c0,3.33,2.71,6.04,6.04,6.04h264.46c3.33,0,6.04-2.71,6.04-6.04V50.8c0-11.57,3.89-22.25,10.43-30.8h-253.45Z"/></g></g><g id="g847"><g id="path849"><path d="M471.22,553.32c-5.52,0-10-4.48-10-10v-43.15c0-28.63,2.27-57.48,6.74-85.75,4.31-27.25,6.49-55.05,6.49-82.63v-133.46c0-22.06-17.95-40-40.01-40h-.95c-5.52,0-10-4.48-10-10s4.48-10,10-10h.95c33.09,0,60.01,26.92,60.01,60v133.46c0,28.62-2.27,57.47-6.74,85.75-4.31,27.25-6.49,55.04-6.49,82.63v43.15c0,5.52-4.48,10-10,10Z"/></g></g><g id="g851"><g id="path853"><path d="M430.42,682.67H140.03c-28.01,0-50.8-22.79-50.8-50.8v-131.7c0-27.58-2.18-55.38-6.49-82.63-4.47-28.28-6.74-57.13-6.74-85.75v-133.46c0-33.09,26.92-60,60.01-60h.95c5.52,0,10,4.48,10,10s-4.48,10-10,10h-.95c-22.06,0-40.01,17.95-40.01,40v133.46c0,27.58,2.18,55.38,6.49,82.63,4.47,28.28,6.74,57.13,6.74,85.75v131.7c0,16.98,13.82,30.8,30.8,30.8h290.39c16.98,0,30.8-13.82,30.8-30.8v-41c0-5.52,4.48-10,10-10s10,4.48,10,10v41c0,28.01-22.79,50.8-50.8,50.8Z"/></g></g><g id="g855"><g id="path857"><path d="M419.4,388.13H151.04c-11.49,0-20.84-9.35-20.84-20.84v-28.81c0-5.52,4.48-10,10-10s10,4.48,10,10v28.81c0,.46.38.84.84.84h268.36c.46,0,.84-.38.84-.84v-104.33c0-.46-.38-.84-.84-.84H151.04c-.46,0-.84.38-.84.84v28.77c0,5.52-4.48,10-10,10s-10-4.48-10-10v-28.77c0-11.49,9.35-20.84,20.84-20.84h268.36c11.49,0,20.84,9.35,20.84,20.84v104.33c0,11.49-9.35,20.84-20.84,20.84Z"/></g></g><g id="g859"><g id="path861"><path d="M202.61,479.43h-42.51c-9.28,0-17.27-6.31-19.42-15.34l-6.53-27.38c-1.43-5.98-.06-12.18,3.75-17.01,3.81-4.83,9.52-7.59,15.67-7.59h49.04c11.01,0,19.97,8.96,19.97,19.97v27.38c0,11.01-8.96,19.97-19.97,19.97ZM202.58,432.08l-49.01.03,6.56,27.34,42.49-.02-.04-27.35Z"/></g></g><g id="g863"><g id="path865"><path d="M311.07,479.43h-51.7c-11.01,0-19.97-8.96-19.97-19.97v-27.38c0-11.01,8.96-19.97,19.97-19.97h51.7c11.01,0,19.97,8.96,19.97,19.97v27.38c0,11.01-8.96,19.97-19.97,19.97ZM311.04,432.08l-51.67.03.03,27.35,51.68-.03-.04-27.35Z"/></g></g><g id="g867"><g id="path869"><path d="M410.35,479.43h-42.51c-11.01,0-19.97-8.96-19.97-19.97v-27.38c0-11.01,8.96-19.97,19.97-19.97h49.04c6.15,0,11.86,2.77,15.67,7.59s5.18,11.03,3.75,17.01l-6.53,27.38c-2.15,9.03-10.14,15.34-19.42,15.34ZM416.85,432.07l-49.01.04.03,27.35,42.49-.03,6.5-27.35Z"/></g></g><g id="g871"><g id="path873"><path d="M555.86,241.28h-71.42c-5.52,0-10-4.48-10-10s4.48-10,10-10h31.04c-6.54-8.55-10.43-19.23-10.43-30.8V49.57c-.65-16.6-14.13-29.57-30.77-29.57-5.52,0-10-4.48-10-10S468.77,0,474.29,0c27.53,0,49.83,21.55,50.76,49.05,0,.11,0,.23,0,.34v141.08c0,16.98,13.82,30.8,30.8,30.8,5.52,0,10,4.48,10,10s-4.48,10-10,10Z"/></g></g><g id="g875"><g id="path877"><path d="M554.98,241.25c-5.5,0-9.97-4.44-10-9.94-.03-5.52,4.42-10.03,9.94-10.06,17.8-.11,31.74-13.63,31.74-30.78v-67.58c0-4.08-3.32-7.4-7.4-7.4h-64.2c-5.52,0-10-4.48-10-10s4.48-10,10-10h64.2c15.11,0,27.4,12.29,27.4,27.4v67.58c0,13.71-5.42,26.52-15.27,36.08-9.69,9.4-22.6,14.62-36.35,14.7h-.06Z"/></g></g></g></svg>