<?xml version="1.0" encoding="UTF-8"?><svg id="Layer_1" xmlns="http://www.w3.org/2000/svg" viewBox="0 0 1080 1080"><path d="M522,0H234c-19.88,0-36,16.12-36,36v108h-36c-59.62.07-107.93,48.38-108,108v720c.07,59.62,48.38,107.93,108,108h432c59.62-.07,107.93-48.38,108-108h252c39.76,0,72-32.24,72-72v-324c0-39.76-32.24-72-72-72h-252v-252c-.07-59.62-48.38-107.93-108-108h-36V36c0-19.88-16.12-36-36-36ZM702,576h252v108h-252v-108ZM702,756h252v36h-252v-36ZM702,864h252v36h-252v-36ZM270,180v-108h216v234h-216v-126ZM594,216c19.88,0,36,16.12,36,36v720c0,19.88-16.12,36-36,36H162c-19.88,0-36-16.12-36-36V252c0-19.88,16.12-36,36-36h36v90c-19.88,0-36,16.12-36,36s16.12,36,36,36h360c19.88,0,36-16.12,36-36s-16.12-36-36-36v-90h36Z"/><path d="M558,414H198c-19.88,0-36,16.12-36,36v180c0,19.88,16.12,36,36,36h360c19.88,0,36-16.12,36-36v-180c0-19.88-16.12-36-36-36ZM522,594H234v-108h288v108Z"/><path d="M270,684h-18c-19.88,0-36,16.12-36,36s16.12,36,36,36h18c19.88,0,36-16.12,36-36s-16.12-36-36-36Z"/><path d="M270,792h-18c-19.88,0-36,16.12-36,36s16.12,36,36,36h18c19.88,0,36-16.12,36-36s-16.12-36-36-36Z"/><path d="M270,900h-18c-19.88,0-36,16.12-36,36s16.12,36,36,36h18c19.88,0,36-16.12,36-36s-16.12-36-36-36Z"/><path d="M396,684h-18c-19.88,0-36,16.12-36,36s16.12,36,36,36h18c19.88,0,36-16.12,36-36s-16.12-36-36-36Z"/><path d="M396,792h-18c-19.88,0-36,16.12-36,36s16.12,36,36,36h18c19.88,0,36-16.12,36-36s-16.12-36-36-36Z"/><path d="M396,900h-18c-19.88,0-36,16.12-36,36s16.12,36,36,36h18c19.88,0,36-16.12,36-36s-16.12-36-36-36Z"/><path d="M522,684h-18c-19.88,0-36,16.12-36,36s16.12,36,36,36h18c19.88,0,36-16.12,36-36s-16.12-36-36-36Z"/><path d="M522,792h-18c-19.88,0-36,16.12-36,36s16.12,36,36,36h18c19.88,0,36-16.12,36-36s-16.12-36-36-36Z"/><path d="M522,900h-18c-19.88,0-36,16.12-36,36s16.12,36,36,36h18c19.88,0,36-16.12,36-36s-16.12-36-36-36Z"/></svg>