<?xml version="1.0" encoding="UTF-8"?><svg id="Layer_1" xmlns="http://www.w3.org/2000/svg" viewBox="0 0 500 500"><path d="M-1.68,94.32c1.41,2.67,2.11,5.68,3.28,8.48,3.08,7.39,7.51,17.8,11.35,24.64,1.71,3.05,3.98,5.26,6.98,7.05l-6.75,80.08c.56,5.98,1.1,11.75,2.56,17.6,1.77,7.11,4.85,13.73,8.03,20.29-10.84,3.34-19.78,12.06-23.17,22.91-.88,2.82-.97,5.93-2.26,8.54V94.32Z" fill="#fff"/><path d="M464.18,196.56l5.27-9.6c-.21,3.57-2.4,7.49-5.27,9.6Z" fill="#fff"/><path d="M483.54,251.42c8.15-10.35,4.94-26.32,1.12-37.91,22.93-25.51,24.14-71.57-6.82-91.28,4.16-23.67-5.06-50.55-28.04-60.71-32.59-14.41-67.66,12.92-74.74,44.67-37.47-1.76-64.86,35.74-61.6,71.09l-7.43-8.88c2.7-1.75,4.75-3.79,6.32-6.63,4.27-21.21,10.52-42.57,13.75-64.01,6.45-42.92-14.71-81.27-56.82-93.72l-14.59-2.92h-11.04l-13.68,2.87c-18.17,5.56-31.56,20.41-36.07,38.79l-18.86,90.34-62.63-45.12c.12-1.99.45-3.98.26-6-.36-3.81-13.37-31.92-16.06-35.29-6.52-8.15-17.28-11.5-27.25-8.04-18.27,9.66-40.09,16.46-57.93,26.52-4.3,2.43-7.97,5.98-10.15,10.48-1.2,2.48-1.46,5.23-2.79,7.53v6.72c1.41,2.67,2.11,5.68,3.28,8.48,3.07,7.39,7.51,17.8,11.34,24.65,1.71,3.05,3.99,5.26,6.99,7.05l-6.76,80.08c.56,5.98,1.1,11.75,2.56,17.6,1.77,7.11,4.85,13.74,8.03,20.29-10.84,3.34-19.78,12.06-23.18,22.91-.88,2.83-.97,5.94-2.26,8.54v8.64c1.43,3.58,1.7,7.36,3.13,11.03,4.19,10.76,14,18.82,25.2,21.44,8.79,43.33,16.28,86.95,25.15,130.26,2.01,9.81,2.9,18.92,8.5,27.5,6.39,9.78,17.78,16.92,29.16,19.31,2.2.46,4.66.42,6.73,1.18h307.06c2.81-.77,5.79-.96,8.64-1.68,15.83-3.98,29.47-16.6,32.95-32.78l27.58-143.29c.41-.91,4.71-1.89,6.13-2.51,27.75-12.14,29.61-51.11,4.82-67.2ZM306.98,246.4h-71.72l-5.86-12.62c3.62-19.69,18.67-63.08,46.09-51.15,20.75,9.03,27.69,43.9,31.49,63.77ZM244.03,31.01c25.95-2.92,49.57,17.11,53.23,42.48,1.59,11.03-1.37,29.85-4.71,40.63-.17.53-.17,1.16-.91,1.24-.69-1.92-2.3-3.74-3.6-5.29-15.04-17.85-31.14-34.83-46.07-52.79-6.06-5.44-14.84-5.43-20.86,0,1.55-13.44,8.51-24.65,22.92-26.27ZM217.5,74.55l.72-.47c.28,1.59,1.61,3.07,2.64,4.33,15.32,18.73,32.47,36.12,47.99,54.7,5.85,4.76,13.49,4.44,19.42,0l-3.84,20.64c-9.23-2.64-18.3-3.48-27.82-1.92,2.99-9.7-5.14-16.41-10.79-23.05-3.69-4.33-14.97-18.19-19.11-20.24-5.25-2.59-12.18-1.73-16.64,2.01l7.43-36.01ZM206.24,128.32l25.17,29.29,4.57,3.82c-7.14,4.63-12.86,11.68-17.47,18.77l-7.48,13.17-12.51-27.38,7.72-37.67ZM165.44,166.24l36.95,80.16h-29.98l-24.79-53.44c-2.37-2.75-5.13-5.8-9.04-6.08-.23-1.13.15-.77.62-1.08,2.27-1.45,5-2.66,7.31-4.19,6.8-4.51,12.93-9.87,18.93-15.37ZM127.33,220.95l.93.49c.65,2.1,1.8,3.95,2.73,5.92,2.09,4.38,6.65,12.94,7.85,17.11.18.64.31,1.25.22,1.93h-66.21l54.48-25.45ZM52.69,222.62l-5.74,5.06c-2.18-5.7-3.68-11.75-3.85-17.9,5.54-3.68,11.82-6.86,18.24-8.74,15.61-4.57,32.07-1.96,47.97-4.56l-56.62,26.14ZM96.62,112.95l45.97,33.09.31.99c-2.62,1.48-4.75,4.02-7.25,5.96-27.89,21.68-49.29,11.16-79.59,18.77-3.41.85-6.68,2.21-10.07,3.12l3.35-42.95c-.37-2.79-1.56-5.51-3.34-7.69l45.08-20.88c.13,4.04,2.63,7.06,5.54,9.59ZM74.79,69.01l3.34,7.95-44.58,19.65-3.37-7.42,44.61-20.18ZM415.96,458.39c-1.74,6.59-8.72,10.28-15.16,10.75H98.98c-6.35-.58-13.17-3.79-15.23-10.2l-26.73-137.18h385.26l-26.32,136.63ZM465.07,292l-280.92.05v-.22h-80.07v.13l-70.21-.08c-8.09-1.36-7.57-16.31,1.37-16.15l427.93-.07c3.95.29,7.25,1.15,7.85,5.58.7,5.12,0,10.09-5.95,10.76ZM458.38,228.61c1.24,6.21-.73,11.72,1.17,17.79h-9.12c2.86-2.49,6.14-5.91,6.68-9.88,1.63-11.92-8.14-20.99-19.76-16.89-9.62,3.39-14.22,5.83-25.06,2.29-.62-.2-.77.39-.73-.72.08-2.24,2.54-5.94,2.96-8.34,13.77.17,27.45-3.14,39.03-10.62-.6,2.03-1.74,3.96-2.03,6.12-1.18,8.73,5.25,12.21,6.86,20.25ZM464.35,192.16l5.27-9.6c-.21,3.57-2.4,7.49-5.27,9.6ZM470.58,179.68l-2.31-6.09c-3.76-6.6-10.83-9.34-18.09-6.89-4.96,1.67-7.03,5.78-10.77,8.91-3.85,3.2-8.95,5.82-13.92,6.47,4.03-14.93,9.99-29.92,13.29-45.02,1.22-5.56,2.24-9.52-.74-14.82-6-10.67-21.11-9.23-26.23,1.28-4.29,14.9-7.88,30.21-13.43,44.63-3.58-2.49-8.73-5.44-10.56-9.59-.62-1.42-.73-3.02-1.3-4.45-6.64-16.59-32.38-10.64-28.06,9.83,3.22,15.27,17.37,25.53,30.04,32.86l-11.47,30.19c-7.79-1.15-17.22-3.99-23.28-9.38-4.21-3.74-5.09-8.73-11.13-10.94-3.9-1.43-6.94-1.36-10.82,0-1.72.6-3.6,3.04-4.14.6,7.02-3.95,14.8-3.13,18.08-12.1,2.63-7.21-.06-9.07-1.79-15.28-5.19-18.61,9.68-47.12,31.29-43.77,2.69.41,4.58,2.23,6.94,3.13,9.08,3.45,19.32-2.39,20.27-12.13,1.17-11.89.48-18.74,8.65-28.79,16.59-20.39,39.86-11.31,37.91,15.37-.71,9.76-7.8,15.83-1.65,25.62,4.33,6.91,10.28,5.07,15.71,8.76,9.7,6.59,10.25,21.28,7.51,31.6Z"/><path d="M264.59,442.55c-1.61,19.2-27.34,19.58-29.76.99l.02-98.9c.6-6.19,5.59-12.16,11.88-13.07,10.16-1.49,17.14,5.06,17.88,14.97,2.32,30.95-1.77,64.77-.02,96.01Z"/><path d="M395.59,345.1l-.07,99.33c-3.72,18.06-28.19,16.88-29.71-2.33l.02-96.01c.09-6.44,5.36-13.52,11.86-14.54,9.21-1.44,17.09,4.15,17.9,13.55Z"/><path d="M198.86,344.64v98.87c-2.47,18.47-27.78,18.1-29.73-.48l-.03-96.97c.3-3.83,1.78-7.88,4.51-10.61,8.68-8.71,24.05-2.96,25.25,9.19Z"/><path d="M329.84,343.68l-.05,101.23c-3.2,16.87-27.15,16.18-29.23-.89l.06-100.78c1.07-5.3,5.88-10.76,11.34-11.69,8.68-1.46,16.18,3.5,17.88,12.13Z"/><path d="M133.09,444.92c-3.09,15.44-24.04,16.68-28.89,1.63l-.29-103.31c.68-5.21,6.14-10.87,11.35-11.68,7.84-1.23,14.53,2.43,17.26,9.85,1.4,34.36.27,69.04.57,103.51Z"/></svg>