<?xml version="1.0" encoding="UTF-8"?><svg id="Layer_1" xmlns="http://www.w3.org/2000/svg" viewBox="0 0 500 500"><path d="M498.69,301.07c2.1-36.61-22.49-77.67-58.17-89.75,71.35-54.9-10.96-152.61-77.59-101.67-27.53,21.06-32.16,62.04-10.83,89.1,4.17,5.3,8.18,8.04,12.76,12.57-8.85,4.35-18.07,8.86-24.42,16.65-11.01-12.12-26.51-20.75-41.51-26.81l.38-.34c4.96-4.4,9.73-7.56,14.51-12.69,52.16-56,10.18-147.38-68.11-144.74-13.57,1.51-24.41,3.86-36.65,10.56-56.87,31.12-60.53,112.38-6.27,147.21-14.4,6.71-30.66,14.58-41.34,26.81-6.47-6.26-16.59-14.06-25.24-16.65,3.45-3.49,7.5-6.76,10.67-10.42,21.59-24.98,19.47-63.81-4.04-86.76-42.21-41.21-111.05-8.6-109.33,48.33.66,26.81,11.23,32.5,25.84,48.85-12.5,3.92-27.86,17-36.31,27C-3.2,269.43,1.21,315.14,1.85,353.87c.16,18.28,30.55,12.71,44.11,12.71h58.31c4.72-.02,11.53-.37,15.94,0-.27,35.05,20.6,61.88,57.98,61.94l76.11-.02h48.52c23.57,0,45.11,1.67,62.97-17.07,12.53-13.15,17.18-27.13,17.36-44.85,3.93.44,9.71.02,13.94,0h70.45c23.12.01,31.29,5.39,31.18-21.69l-.05-20.31c0-7.58-.41-16.03.02-23.51ZM95.26,125.31c19.09-1.41,35.7,12.94,37.07,32.04,1.37,19.09-13,35.67-32.1,37.01-19.05,1.34-35.58-12.99-36.96-32.04-1.37-19.05,12.95-35.61,31.99-37.01ZM116.23,332.02H46.01v-23.71c0-7.49-.3-15.31,1.19-22.69,5.72-28.33,30.32-44.18,57.99-43.45,11.01,1.25,23.91,5.42,31.59,13.76-20.96,24.91-20.58,45.97-20.55,76.09ZM197.83,134.02c-2.4-27.82,18.17-52.33,45.98-54.82,27.94-2.49,52.6,18.19,55,46.14,2.4,27.94-18.35,52.53-46.31,54.85-27.83,2.3-52.28-18.34-54.67-46.17ZM335.12,386.92c-12.2,11.78-25.94,9.2-41.78,9.2h-33.59s-49.85-.01-49.85-.01c-8.91.01-19.07.9-27.69-.71-17.55-3.28-22.42-17.3-22.39-32.63l.03-16.14c-.01-21.44-1.6-39.52,8.34-59.38,16.2-32.39,40.03-46.95,74.5-51.21,51.68-2.29,99.62,32.58,100.12,86.29l.02,30.88c.03,12.56,2.1,24.24-7.71,33.71ZM399.86,125.31c19.09-1.41,35.7,12.94,37.07,32.04,1.38,19.09-13,35.67-32.1,37.01-19.05,1.34-35.58-12.99-36.96-32.04-1.37-19.05,12.95-35.61,31.99-37.01ZM461.78,308.31v23.71h-70.23c.03-30.12.41-51.18-20.55-76.09,7.69-8.34,20.58-12.51,31.59-13.76,27.68-.73,52.27,15.12,57.99,43.45,1.49,7.38,1.2,15.2,1.2,22.69Z"/></svg>